<?xml version="1.0" encoding="iso-8859-1"?>
<!-- Generator: Adobe Illustrator 19.0.0, SVG Export Plug-In . SVG Version: 6.00 Build 0)  -->
<svg xmlns="http://www.w3.org/2000/svg" xmlns:xlink="http://www.w3.org/1999/xlink" version="1.1" id="Capa_1" x="0px" y="0px" viewBox="0 0 512 512" style="enable-background:new 0 0 512 512;" xml:space="preserve" width="512px" height="512px">
<g>
	<g>
		<path d="M384.4,154.874c-6.543-27.373-21.432-52.235-42.789-71.076c-25.098-22.141-57.372-34.334-90.877-34.334    c-75.77,0-137.414,61.649-137.414,137.425c0,1.175,0.015,2.352,0.045,3.529c-1.162-0.037-2.325-0.056-3.486-0.056    C49.291,190.362,0,239.654,0,300.242s49.291,109.879,109.879,109.879h94.369v52.414h30V313.172l-26.374-0.058l47.706-60.377    l48.306,60.377l-26.76,0.058v149.363h30v-52.414h77.256c70.369,0,127.618-57.254,127.618-127.629    C512,212.127,454.763,154.882,384.4,154.874z M384.382,380.121h-77.256v-37.014l59.074-0.126L255.434,204.533L146.041,342.981    l58.207,0.126v37.014h-94.369C65.833,380.121,30,344.288,30,300.242c0-44.045,35.833-79.879,79.879-79.879    c5.691,0,11.406,0.615,16.985,1.829l21.659,4.711l-3.679-21.858c-1.012-6.012-1.525-12.121-1.525-18.156    c0-59.234,48.186-107.425,107.414-107.425c53.623,0,99.396,40.008,106.471,93.063l1.935,14.512l14.554-1.583    c3.549-0.386,7.145-0.581,10.688-0.581c53.827,0,97.618,43.792,97.618,97.618C482,336.325,438.209,380.121,384.382,380.121z" fill="#2cabe3"/>
	</g>
</g>
<g>
</g>
<g>
</g>
<g>
</g>
<g>
</g>
<g>
</g>
<g>
</g>
<g>
</g>
<g>
</g>
<g>
</g>
<g>
</g>
<g>
</g>
<g>
</g>
<g>
</g>
<g>
</g>
<g>
</g>
</svg>
