<?xml version="1.0" encoding="iso-8859-1"?>
<!-- Generator: Adobe Illustrator 19.0.0, SVG Export Plug-In . SVG Version: 6.00 Build 0)  -->
<svg xmlns="http://www.w3.org/2000/svg" xmlns:xlink="http://www.w3.org/1999/xlink" version="1.1" id="Capa_1" x="0px" y="0px" viewBox="0 0 512 512" style="enable-background:new 0 0 512 512;" xml:space="preserve" width="512px" height="512px">
<g>
	<g>
		<polygon points="482.067,144.011 482.067,398.082 59.956,398.082 59.956,427.944 512,427.944 512,144.011   " fill="#0f89ff"/>
	</g>
</g>
<g>
	<g>
		<path d="M452.044,84.056H0V367.99l452.091,0.117L452.044,84.056z M422.068,269.249L422.068,269.249    c-17.02,3.01-32.698,11.11-45.177,23.588c-12.478,12.478-20.578,28.154-23.587,45.177H100.369    c-3.009-17.022-11.11-32.699-23.587-45.177c-12.921-12.92-29.179-21.104-46.806-23.861V183.09    c17.638-2.751,33.883-10.959,46.806-23.882c12.478-12.478,20.578-28.154,23.587-45.177h252.935    c3.009,17.022,11.11,32.699,23.587,45.178c12.478,12.477,28.155,20.577,45.177,23.586V269.249z" fill="#0f89ff"/>
	</g>
</g>
<g>
	<g>
		<path d="M309.365,208.889c-4.576-22.261-17.549-41.408-36.526-53.914c-18.978-12.506-41.692-16.872-63.95-12.295    c-22.261,4.576-41.408,17.549-53.914,36.527c-12.505,18.977-16.871,41.688-12.295,63.95c4.576,22.261,17.548,41.408,36.527,53.914    c14.386,9.479,30.621,14.012,46.685,14.012c27.677,0,54.845-13.455,71.179-38.242v-0.001    C309.576,253.862,313.942,231.15,309.365,208.889z" fill="#0f89ff"/>
	</g>
</g>
<g>
</g>
<g>
</g>
<g>
</g>
<g>
</g>
<g>
</g>
<g>
</g>
<g>
</g>
<g>
</g>
<g>
</g>
<g>
</g>
<g>
</g>
<g>
</g>
<g>
</g>
<g>
</g>
<g>
</g>
</svg>
